<svg width="200" height="80" viewBox="0 0 120 120" fill="none" xmlns="http://www.w3.org/2000/svg">
<path d="M19.5031 87L9.45813 75.87V87H6.27313V62.605H9.45813V73.91L19.5381 62.605H23.5631L12.5031 74.82L23.6681 87H19.5031ZM51.9703 62.78V87H48.7853V68.94L40.7353 87H38.4953L30.4103 68.905V87H27.2253V62.78H30.6553L39.6153 82.8L48.5753 62.78H51.9703ZM56.1818 77.34C56.1818 75.38 56.5784 73.665 57.3718 72.195C58.1651 70.7017 59.2501 69.5467 60.6268 68.73C62.0268 67.9133 63.5784 67.505 65.2818 67.505C66.9618 67.505 68.4201 67.8667 69.6568 68.59C70.8934 69.3133 71.8151 70.2233 72.4218 71.32V67.82H75.6418V87H72.4218V83.43C71.7918 84.55 70.8468 85.4833 69.5868 86.23C68.3501 86.9533 66.9034 87.315 65.2468 87.315C63.5434 87.315 62.0034 86.895 60.6268 86.055C59.2501 85.215 58.1651 84.0367 57.3718 82.52C56.5784 81.0033 56.1818 79.2767 56.1818 77.34ZM72.4218 77.375C72.4218 75.9283 72.1301 74.6683 71.5468 73.595C70.9634 72.5217 70.1701 71.705 69.1668 71.145C68.1868 70.5617 67.1018 70.27 65.9118 70.27C64.7218 70.27 63.6368 70.55 62.6568 71.11C61.6768 71.67 60.8951 72.4867 60.3118 73.56C59.7284 74.6333 59.4368 75.8933 59.4368 77.34C59.4368 78.81 59.7284 80.0933 60.3118 81.19C60.8951 82.2633 61.6768 83.0917 62.6568 83.675C63.6368 84.235 64.7218 84.515 65.9118 84.515C67.1018 84.515 68.1868 84.235 69.1668 83.675C70.1701 83.0917 70.9634 82.2633 71.5468 81.19C72.1301 80.0933 72.4218 78.8217 72.4218 77.375ZM84.2091 70.935C84.7691 69.8383 85.5624 68.9867 86.5891 68.38C87.6391 67.7733 88.9108 67.47 90.4041 67.47V70.76H89.5641C85.9941 70.76 84.2091 72.6967 84.2091 76.57V87H81.0241V67.82H84.2091V70.935ZM97.9657 70.445V81.75C97.9657 82.6833 98.1641 83.3483 98.5607 83.745C98.9574 84.1183 99.6457 84.305 100.626 84.305H102.971V87H100.101C98.3274 87 96.9974 86.5917 96.1107 85.775C95.2241 84.9583 94.7807 83.6167 94.7807 81.75V70.445H92.2957V67.82H94.7807V62.99H97.9657V67.82H102.971V70.445H97.9657ZM108.475 64.705C107.868 64.705 107.355 64.495 106.935 64.075C106.515 63.655 106.305 63.1417 106.305 62.535C106.305 61.9283 106.515 61.415 106.935 60.995C107.355 60.575 107.868 60.365 108.475 60.365C109.058 60.365 109.548 60.575 109.945 60.995C110.365 61.415 110.575 61.9283 110.575 62.535C110.575 63.1417 110.365 63.655 109.945 64.075C109.548 64.495 109.058 64.705 108.475 64.705ZM110.015 67.82V87H106.83V67.82H110.015ZM124.788 67.47C127.121 67.47 129.011 68.1817 130.458 69.605C131.905 71.005 132.628 73.035 132.628 75.695V87H129.478V76.15C129.478 74.2367 129 72.7783 128.043 71.775C127.086 70.7483 125.78 70.235 124.123 70.235C122.443 70.235 121.101 70.76 120.098 71.81C119.118 72.86 118.628 74.3883 118.628 76.395V87H115.443V67.82H118.628V70.55C119.258 69.57 120.11 68.8117 121.183 68.275C122.28 67.7383 123.481 67.47 124.788 67.47ZM144.621 87.315C143.151 87.315 141.832 87.07 140.666 86.58C139.499 86.0667 138.577 85.3667 137.901 84.48C137.224 83.57 136.851 82.5317 136.781 81.365H140.071C140.164 82.3217 140.607 83.1033 141.401 83.71C142.217 84.3167 143.279 84.62 144.586 84.62C145.799 84.62 146.756 84.3517 147.456 83.815C148.156 83.2783 148.506 82.6017 148.506 81.785C148.506 80.945 148.132 80.3267 147.386 79.93C146.639 79.51 145.484 79.1017 143.921 78.705C142.497 78.3317 141.331 77.9583 140.421 77.585C139.534 77.1883 138.764 76.6167 138.111 75.87C137.481 75.1 137.166 74.0967 137.166 72.86C137.166 71.88 137.457 70.9817 138.041 70.165C138.624 69.3483 139.452 68.7067 140.526 68.24C141.599 67.75 142.824 67.505 144.201 67.505C146.324 67.505 148.039 68.0417 149.346 69.115C150.652 70.1883 151.352 71.6583 151.446 73.525H148.261C148.191 72.5217 147.782 71.7167 147.036 71.11C146.312 70.5033 145.332 70.2 144.096 70.2C142.952 70.2 142.042 70.445 141.366 70.935C140.689 71.425 140.351 72.0667 140.351 72.86C140.351 73.49 140.549 74.015 140.946 74.435C141.366 74.8317 141.879 75.1583 142.486 75.415C143.116 75.6483 143.979 75.9167 145.076 76.22C146.452 76.5933 147.572 76.9667 148.436 77.34C149.299 77.69 150.034 78.2267 150.641 78.95C151.271 79.6733 151.597 80.6183 151.621 81.785C151.621 82.835 151.329 83.78 150.746 84.62C150.162 85.46 149.334 86.125 148.261 86.615C147.211 87.0817 145.997 87.315 144.621 87.315Z" fill="#ffffff"/>
<path d="M60.0639 43.485L52.9589 35.75L60.0639 28.015H67.5889L60.4489 35.75L67.5889 43.485H60.0639ZM85.7462 14.75L76.3662 54.545H70.5912L79.9712 14.75H85.7462ZM88.3056 28.015H95.8306L102.936 35.75L95.8306 43.485H88.3056L95.4456 35.75L88.3056 28.015Z" fill="#de3132"/>
</svg>
