<?xml version="1.0" encoding="UTF-8"?>
<svg xmlns="http://www.w3.org/2000/svg" xmlns:xlink="http://www.w3.org/1999/xlink" viewBox="0 0 480 480" width="480" height="480">
<g id="surface103783082">
<path style=" stroke:none;fill-rule:nonzero;fill:rgb(20.392157%,59.607846%,85.882354%);fill-opacity:1;" d="M 170.792969 449.625 C 177.621094 446.6875 182.398438 439.902344 182.398438 432 L 182.398438 380.160156 C 182.398438 378.269531 182.554688 376.300781 182.792969 374.304688 C 182.660156 374.34375 182.535156 374.371094 182.398438 374.398438 C 182.398438 374.398438 153.601562 374.398438 147.839844 374.398438 C 133.441406 374.398438 120.960938 368.640625 115.199219 357.121094 C 108.480469 344.640625 105.601562 323.519531 88.320312 312 C 85.441406 310.078125 87.359375 307.199219 93.121094 307.199219 C 98.878906 308.160156 111.359375 315.839844 119.039062 326.398438 C 127.679688 336.960938 136.320312 345.601562 151.679688 345.601562 C 175.554688 345.601562 188.351562 344.398438 196.050781 340.273438 C 205.019531 326.9375 217.429688 316.800781 230.398438 316.800781 L 230.398438 316.558594 C 175.988281 314.8125 141.226562 296.726562 125.039062 268.800781 C 89.855469 269.203125 59.222656 272.6875 41.742188 275.585938 C 41.183594 272.449219 40.703125 269.289062 40.292969 266.113281 C 57.542969 263.269531 86.785156 259.902344 120.402344 259.257812 C 119.328125 256.609375 118.398438 253.890625 117.609375 251.105469 C 83.902344 249.398438 54.816406 250.734375 39.015625 252.039062 C 38.824219 248.851562 38.5625 245.671875 38.523438 242.449219 C 54.355469 241.152344 82.65625 239.855469 115.496094 241.382812 C 114.738281 236.582031 114.25 231.675781 114.25 226.570312 C 114.25 210.25 120.007812 192.96875 130.570312 178.570312 C 125.769531 162.25 119.050781 127.691406 132.488281 115.210938 C 158.410156 115.210938 176.648438 127.691406 185.289062 135.371094 C 201.601562 128.640625 219.839844 124.800781 240 124.800781 C 260.160156 124.800781 278.398438 128.640625 293.761719 135.359375 C 302.398438 127.679688 320.640625 115.199219 346.558594 115.199219 C 360.960938 128.640625 353.28125 163.199219 348.480469 178.558594 C 359.039062 192.960938 364.800781 209.28125 363.839844 226.558594 C 363.839844 231.207031 363.40625 235.691406 362.785156 240.085938 C 396.375 238.433594 425.441406 239.761719 441.542969 241.066406 C 441.523438 244.300781 441.226562 247.460938 441.054688 250.65625 C 425.011719 249.332031 395.210938 247.96875 360.804688 249.800781 C 359.953125 253.027344 358.914062 256.167969 357.6875 259.210938 C 391.726562 259.652344 421.671875 262.945312 439.746094 265.824219 C 439.335938 269.011719 438.855469 272.167969 438.296875 275.300781 C 419.941406 272.363281 388.65625 268.925781 353.058594 268.753906 C 337.074219 296.378906 302.945312 314.398438 249.601562 316.503906 L 249.601562 316.800781 C 274.558594 316.800781 297.601562 354.238281 297.601562 380.160156 L 297.601562 432 C 297.601562 439.902344 302.378906 446.6875 309.207031 449.625 C 397.152344 420.519531 460.800781 337.574219 460.800781 240 C 460.800781 118.253906 361.757812 19.199219 240 19.199219 C 118.242188 19.199219 19.199219 118.253906 19.199219 240 C 19.199219 337.574219 82.847656 420.519531 170.792969 449.625 Z M 170.792969 449.625 "/>
</g>
</svg>
