<?xml version="1.0" encoding="UTF-8"?>
<svg xmlns="http://www.w3.org/2000/svg" xmlns:xlink="http://www.w3.org/1999/xlink" viewBox="0 0 480 480" width="480px" height="480px">
<g id="surface103546847">
<path style=" stroke:none;fill-rule:nonzero;fill:rgb(94.509804%,76.862746%,5.882353%);fill-opacity:1;" d="M 434.628906 22.320312 C 432.804688 20.332031 430.242188 19.199219 427.546875 19.199219 L 52.453125 19.199219 C 49.757812 19.199219 47.195312 20.332031 45.371094 22.320312 C 43.546875 24.308594 42.652344 26.976562 42.894531 29.65625 L 76.683594 408.152344 C 77.039062 412.109375 79.796875 415.441406 83.617188 416.535156 L 237.3125 460.433594 C 238.167969 460.675781 239.058594 460.800781 239.941406 460.800781 C 240.824219 460.800781 241.71875 460.675781 242.574219 460.433594 L 396.402344 416.535156 C 400.222656 415.441406 402.980469 412.109375 403.335938 408.152344 L 437.105469 29.65625 C 437.347656 26.976562 436.445312 24.308594 434.628906 22.320312 Z M 115.199219 278.4375 L 182.398438 297.082031 L 182.398438 105.601562 L 220.800781 105.601562 L 220.800781 355.199219 L 115.199219 325.910156 Z M 365.320312 211.199219 L 355.199219 328.800781 L 259.199219 355.199219 L 259.199219 311.03125 L 324 293.222656 L 326.398438 257.222656 L 259.199219 268.800781 L 259.199219 105.601562 L 374.398438 105.601562 L 371.089844 144 L 297.601562 144 L 297.601562 220.800781 Z M 365.320312 211.199219 "/>
</g>
</svg>
